<svg width="42" height="16" viewBox="0 0 42 16" fill="none" xmlns="http://www.w3.org/2000/svg">
    <path fill-rule="evenodd" clip-rule="evenodd"
          d="M8.138 15.1349V8.95855H15.1229L15.8723 9.87321L16.6465 8.95855H42V14.7089C42 14.7089 41.3369 15.1287 40.5701 15.1349H26.5314L25.6864 14.1613V15.1349H22.9177V13.4729C22.9177 13.4729 22.5395 13.7049 21.7218 13.7049H20.7794V15.1349H16.5872L15.8389 14.2006L15.0791 15.1349H8.138ZM0 4.30328L1.57155 0.865234H4.28938L5.18126 2.79109V0.865234H8.55978L9.09071 2.25718L9.60543 0.865234H24.7715V1.56501C24.7715 1.56501 25.5687 0.865234 26.879 0.865234L31.7998 0.881372L32.6763 2.78202V0.865234H35.5036L36.2818 1.957V0.865234H39.135V7.04154H36.2818L35.536 5.94624V7.04154H31.3821L30.9643 6.06794H29.8476L29.4367 7.04154H26.6196C25.4922 7.04154 24.7715 6.35605 24.7715 6.35605V7.04154H20.524L19.681 6.06794V7.04154H3.88675L3.4693 6.06794H2.35614L1.94164 7.04154H0V4.30328ZM0.00975445 6.25071L2.12943 1.62608H3.73642L5.85407 6.25071H4.44365L4.05457 5.32465H1.78088L1.38978 6.25071H0.00975445ZM3.60656 4.32078L2.91351 2.70254L2.21843 4.32078H3.60656ZM5.99899 6.25045V1.62582L7.96007 1.63265L9.10071 4.61432L10.214 1.62582H12.1594V6.25045H10.9273V2.84283L9.6213 6.25045H8.54076L7.23107 2.84283V6.25045H5.99899ZM13.0041 6.25045V1.62582H17.0246V2.66028H14.2491V3.45133H16.9597V4.42494H14.2491V5.24642H17.0246V6.25045H13.0041ZM17.7356 6.25069V1.62606H20.4774C21.3859 1.62606 22.1999 2.15322 22.1999 3.12641C22.1999 3.95834 21.5136 4.4942 20.8482 4.54688L22.4694 6.25069H20.9637L19.4864 4.60773H18.9677V6.25069H17.7356ZM20.3772 2.66073H18.9688V3.63434H20.3955C20.6424 3.63434 20.9608 3.45478 20.9608 3.14754C20.9608 2.90872 20.7151 2.66073 20.3772 2.66073ZM23.9622 6.25045H22.7042V1.62582H23.9622V6.25045ZM26.9434 6.25045H26.6719C25.358 6.25045 24.5603 5.27913 24.5603 3.95715C24.5603 2.60251 25.3491 1.62582 27.0083 1.62582H28.3701V2.72113H26.9585C26.2849 2.72113 25.8086 3.21436 25.8086 3.96856C25.8086 4.86418 26.3533 5.24033 27.138 5.24033H27.4622L26.9434 6.25045ZM27.5028 6.25069L29.6225 1.62606H31.2295L33.3471 6.25069H31.9367L31.5476 5.32463H29.2739L28.8828 6.25069H27.5028ZM31.0996 4.32078L30.4066 2.70254L29.7115 4.32078H31.0996ZM33.4926 6.25045V1.62582H35.059L37.0592 4.53143V1.62582H38.2913V6.25045H36.7755L34.7247 3.26878V6.25045H33.4926ZM8.98106 14.3438V9.71914H13.0016V10.7536H10.2261V11.5446H12.9367V12.5183H10.2261V13.3397H13.0016V14.3438H8.98106ZM28.6823 14.3438V9.71914H32.7028V10.7536H29.9273V11.5446H32.6249V12.5183H29.9273V13.3397H32.7028V14.3438H28.6823ZM13.1594 14.3438L15.1169 12.06L13.1128 9.71914H14.665L15.8586 11.1662L17.0563 9.71914H18.5477L16.5699 12.0315L18.5311 14.3438H16.979L15.8201 12.9195L14.6894 14.3438H13.1594ZM18.6746 14.3435V9.71888H21.3961C22.5128 9.71888 23.1652 10.3943 23.1652 11.2744C23.1652 12.3368 22.3334 12.8831 21.236 12.8831H19.9391V14.3435H18.6746ZM21.3057 10.7646H19.9398V11.8295H21.3016C21.6615 11.8295 21.9136 11.6057 21.9136 11.297C21.9136 10.9685 21.6602 10.7646 21.3057 10.7646ZM23.7033 14.3435V9.71888H26.4451C27.3536 9.71888 28.1676 10.246 28.1676 11.2192C28.1676 12.0512 27.4813 12.587 26.816 12.6397L28.4371 14.3435H26.9315L25.4542 12.7005H24.9354V14.3435H23.7033ZM26.3451 10.7536H24.9367V11.7272H26.3634C26.6103 11.7272 26.9287 11.5477 26.9287 11.2404C26.9287 11.0016 26.683 10.7536 26.3451 10.7536ZM33.2728 14.3438V13.3397H35.7386C36.1034 13.3397 36.2614 13.1547 36.2614 12.9518C36.2614 12.7574 36.1039 12.5609 35.7386 12.5609H34.6243C33.6558 12.5609 33.1163 12.0071 33.1163 11.1757C33.1163 10.4342 33.6103 9.71914 35.0496 9.71914H37.4489L36.9302 10.7597H34.8551C34.4584 10.7597 34.3363 10.955 34.3363 11.1415C34.3363 11.3332 34.4872 11.5446 34.7902 11.5446H35.9575C37.0372 11.5446 37.5057 12.1194 37.5057 12.8719C37.5057 13.6811 36.9836 14.3438 35.8987 14.3438H33.2728ZM37.6135 14.3438V13.3397H40.0793C40.4442 13.3397 40.6021 13.1547 40.6021 12.9518C40.6021 12.7574 40.4447 12.5609 40.0793 12.5609H38.9651C37.9965 12.5609 37.4571 12.0071 37.4571 11.1757C37.4571 10.4342 37.951 9.71914 39.3903 9.71914H41.7897L41.2709 10.7597H39.1958C38.7991 10.7597 38.677 10.955 38.677 11.1415C38.677 11.3332 38.8279 11.5446 39.1309 11.5446H40.2982C41.3779 11.5446 41.8464 12.1194 41.8464 12.8719C41.8464 13.6811 41.3243 14.3438 40.2394 14.3438H37.6135Z"
          fill="#383838"/>
</svg>
