<svg width="32" height="26" viewBox="0 0 32 26" fill="none" xmlns="http://www.w3.org/2000/svg">
    <path d="M5.89737 25.253V23.619C5.90878 23.4804 5.88986 23.3409 5.84194 23.2102C5.79402 23.0796 5.71823 22.961 5.61985 22.8626C5.52146 22.7642 5.40284 22.6884 5.27222 22.6405C5.1416 22.5926 5.0021 22.5736 4.86344 22.585C4.68314 22.578 4.50397 22.6166 4.34258 22.6973C4.1812 22.778 4.04281 22.8982 3.94029 23.0467C3.85066 22.8976 3.72205 22.7758 3.56831 22.6945C3.41458 22.6132 3.24156 22.5753 3.06791 22.585C2.91907 22.5786 2.77105 22.6102 2.6378 22.6768C2.50455 22.7435 2.39047 22.8429 2.30631 22.9658V22.6389H1.73242V25.2545H2.30324V23.8113C2.30324 23.3498 2.54787 23.129 2.9279 23.129C3.30793 23.129 3.49872 23.3736 3.49872 23.8113V25.2545H4.06953V23.8113C4.05785 23.7239 4.0655 23.635 4.09192 23.5508C4.11835 23.4666 4.16292 23.3893 4.22248 23.3242C4.28204 23.2592 4.35515 23.208 4.43666 23.1742C4.51816 23.1405 4.60607 23.125 4.6942 23.129C5.07499 23.129 5.26501 23.3736 5.26501 23.8113V25.2545L5.89737 25.253ZM14.3673 22.6374H13.4441V21.8473H12.8733V22.6374H12.3563V23.1544H12.8733V24.3537C12.8733 24.9529 13.1179 25.3053 13.7711 25.3053C14.0188 25.2999 14.2616 25.2347 14.4788 25.1152L14.3142 24.6237C14.1666 24.7149 13.9961 24.7621 13.8226 24.7599C13.5495 24.7599 13.4418 24.5952 13.4418 24.3252V23.1544H14.365V22.6374H14.3673ZM19.2138 22.5804C19.0765 22.5777 18.9409 22.6115 18.821 22.6784C18.7011 22.7453 18.6012 22.8429 18.5314 22.9612V22.6343H17.9645V25.2499H18.5353V23.7782C18.5353 23.3436 18.7253 23.0959 19.0807 23.0959C19.2007 23.1016 19.3198 23.1196 19.4361 23.1497L19.6008 22.6043C19.4734 22.5859 19.3447 22.5785 19.2161 22.582L19.2138 22.5804ZM11.8871 22.8551C11.5681 22.6601 11.1981 22.565 10.8247 22.582C10.1715 22.582 9.7369 22.9089 9.7369 23.4282C9.7369 23.8628 10.0638 24.1106 10.6347 24.1898L10.9078 24.2183C11.2062 24.2721 11.3693 24.3544 11.3693 24.4914C11.3693 24.6814 11.1501 24.8183 10.7701 24.8183C10.458 24.8199 10.1531 24.7245 9.89768 24.5452L9.62458 24.9799C9.95395 25.2022 10.3443 25.3164 10.7416 25.3068C11.5032 25.3068 11.9409 24.9514 11.9409 24.4606C11.9409 23.999 11.5855 23.7528 11.0432 23.6705L10.7701 23.6421C10.5254 23.6136 10.3354 23.5598 10.3354 23.3974C10.3354 23.2074 10.5254 23.099 10.827 23.099C11.1125 23.1116 11.3919 23.1864 11.6455 23.3182L11.8863 22.8566L11.8871 22.8551ZM27.079 22.582C26.9417 22.5792 26.8062 22.613 26.6863 22.6799C26.5663 22.7469 26.4664 22.8445 26.3967 22.9628V22.6359H25.8259V25.2514H26.3967V23.7798C26.3967 23.3451 26.5867 23.0974 26.9421 23.0974C27.0621 23.1031 27.1812 23.1212 27.2975 23.1513L27.4621 22.6128C27.3354 22.589 27.2064 22.5795 27.0775 22.5843L27.079 22.582ZM19.7823 23.946C19.7745 24.1292 19.8053 24.312 19.8728 24.4825C19.9402 24.6531 20.0428 24.8076 20.1738 24.9359C20.3048 25.0643 20.4614 25.1636 20.6333 25.2275C20.8052 25.2914 20.9886 25.3184 21.1716 25.3068C21.5055 25.3235 21.8339 25.2173 22.0948 25.0083L21.8217 24.5468C21.6288 24.7037 21.388 24.79 21.1393 24.7914C21.0298 24.7949 20.9207 24.775 20.8195 24.7329C20.7182 24.6908 20.6272 24.6276 20.5524 24.5475C20.4775 24.4674 20.4207 24.3722 20.3857 24.2683C20.3507 24.1644 20.3383 24.0542 20.3493 23.9452C20.3431 23.8371 20.3589 23.729 20.3958 23.6273C20.4326 23.5255 20.4896 23.4323 20.5635 23.3532C20.6373 23.2741 20.7264 23.2108 20.8254 23.1671C20.9243 23.1234 21.0311 23.1002 21.1393 23.099C21.3877 23.1023 21.6278 23.1884 21.8217 23.3436L22.0948 22.882C21.8346 22.6718 21.5057 22.5654 21.1716 22.5835C20.9886 22.5719 20.8052 22.599 20.6333 22.6629C20.4614 22.7267 20.3048 22.8261 20.1738 22.9544C20.0428 23.0828 19.9402 23.2372 19.8728 23.4078C19.8053 23.5783 19.7745 23.7612 19.7823 23.9444V23.946ZM25.0643 23.946V22.6382H24.4934V22.9651C24.3972 22.841 24.2727 22.7418 24.1303 22.6755C23.9879 22.6093 23.8318 22.578 23.6749 22.5843C23.3252 22.6009 22.9953 22.7516 22.7537 23.005C22.512 23.2583 22.3772 23.595 22.3772 23.9452C22.3772 24.2953 22.512 24.632 22.7537 24.8854C22.9953 25.1388 23.3252 25.2894 23.6749 25.3061C23.8325 25.318 23.9906 25.2892 24.1339 25.2225C24.2772 25.1559 24.401 25.0535 24.4934 24.9253V25.2522H25.0643V23.9444V23.946ZM22.9672 23.946C22.9604 23.8381 22.9759 23.7299 23.0125 23.6282C23.0492 23.5265 23.1063 23.4334 23.1803 23.3546C23.2543 23.2758 23.3437 23.213 23.4429 23.1701C23.5422 23.1272 23.6491 23.105 23.7572 23.105C23.8653 23.105 23.9723 23.1272 24.0715 23.1701C24.1708 23.213 24.2601 23.2758 24.3342 23.3546C24.4082 23.4334 24.4653 23.5265 24.5019 23.6282C24.5386 23.7299 24.554 23.8381 24.5473 23.946C24.554 24.0539 24.5386 24.162 24.5019 24.2637C24.4653 24.3654 24.4082 24.4585 24.3342 24.5373C24.2601 24.6161 24.1708 24.6789 24.0715 24.7218C23.9723 24.7647 23.8653 24.7869 23.7572 24.7869C23.6491 24.7869 23.5422 24.7647 23.4429 24.7218C23.3437 24.6789 23.2543 24.6161 23.1803 24.5373C23.1063 24.4585 23.0492 24.3654 23.0125 24.2637C22.9759 24.162 22.9604 24.0539 22.9672 23.946ZM16.1343 22.582C15.781 22.597 15.4474 22.7488 15.2041 23.0054C14.9608 23.2619 14.8268 23.6031 14.8305 23.9567C14.8342 24.3102 14.9753 24.6485 15.2239 24.8999C15.4726 25.1513 15.8093 25.2961 16.1628 25.3037C16.5474 25.312 16.923 25.1864 17.2252 24.9483L16.9521 24.5391C16.7338 24.709 16.467 24.8047 16.1905 24.8122C16.0041 24.8279 15.8187 24.7721 15.6719 24.6561C15.5252 24.5401 15.4281 24.3725 15.4004 24.1875H17.3321V23.9683C17.358 23.7961 17.3463 23.6204 17.2978 23.4532C17.2493 23.286 17.1652 23.1314 17.0513 22.9998C16.9373 22.8682 16.7962 22.7628 16.6376 22.691C16.4791 22.6191 16.3069 22.5825 16.1328 22.5835L16.1343 22.582ZM16.1343 23.0736C16.2183 23.0713 16.3019 23.0857 16.3803 23.116C16.4587 23.1462 16.5304 23.1917 16.5911 23.2498C16.6518 23.3079 16.7004 23.3774 16.7341 23.4544C16.7678 23.5313 16.786 23.6142 16.7875 23.6982H15.4304C15.4475 23.5239 15.53 23.3625 15.6613 23.2466C15.7927 23.1307 15.9631 23.0688 16.1382 23.0736H16.1343ZM30.3208 23.946V21.605H29.75V22.9658C29.6537 22.8418 29.5293 22.7426 29.3869 22.6763C29.2445 22.6101 29.0884 22.5788 28.9315 22.585C28.5818 22.6017 28.2519 22.7524 28.0102 23.0058C27.7686 23.2591 27.6338 23.5958 27.6338 23.946C27.6338 24.2961 27.7686 24.6328 28.0102 24.8862C28.2519 25.1396 28.5818 25.2902 28.9315 25.3068C29.0891 25.3187 29.2472 25.29 29.3905 25.2233C29.5338 25.1566 29.6576 25.0543 29.75 24.926V25.253H30.3208V23.9452V23.946ZM28.2237 23.946C28.217 23.8381 28.2324 23.7299 28.2691 23.6282C28.3058 23.5265 28.3629 23.4334 28.4369 23.3546C28.5109 23.2758 28.6003 23.213 28.6995 23.1701C28.7987 23.1272 28.9057 23.105 29.0138 23.105C29.1219 23.105 29.2289 23.1272 29.3281 23.1701C29.4273 23.213 29.5167 23.2758 29.5907 23.3546C29.6648 23.4334 29.7219 23.5265 29.7585 23.6282C29.7952 23.7299 29.8106 23.8381 29.8039 23.946C29.8106 24.0539 29.7952 24.162 29.7585 24.2637C29.7219 24.3654 29.6648 24.4585 29.5907 24.5373C29.5167 24.6161 29.4273 24.6789 29.3281 24.7218C29.2289 24.7647 29.1219 24.7869 29.0138 24.7869C28.9057 24.7869 28.7987 24.7647 28.6995 24.7218C28.6003 24.6789 28.5109 24.6161 28.4369 24.5373C28.3629 24.4585 28.3058 24.3654 28.2691 24.2637C28.2324 24.162 28.217 24.0539 28.2237 23.946ZM9.10762 23.946V22.6382H8.53681V22.9651C8.44054 22.841 8.31604 22.7418 8.17367 22.6755C8.0313 22.6093 7.87518 22.578 7.71828 22.5843C7.36855 22.6009 7.03864 22.7516 6.79702 23.005C6.55539 23.2583 6.42059 23.595 6.42059 23.9452C6.42059 24.2953 6.55539 24.632 6.79702 24.8854C7.03864 25.1388 7.36855 25.2894 7.71828 25.3061C7.8759 25.318 8.03394 25.2892 8.17727 25.2225C8.32059 25.1559 8.44439 25.0535 8.53681 24.9253V25.2522H9.10762V23.9444V23.946ZM6.98514 23.946C6.97841 23.8381 6.99384 23.7299 7.0305 23.6282C7.06716 23.5265 7.12426 23.4334 7.19828 23.3546C7.27231 23.2758 7.36169 23.213 7.46091 23.1701C7.56013 23.1272 7.6671 23.105 7.77521 23.105C7.88332 23.105 7.99028 23.1272 8.0895 23.1701C8.18873 23.213 8.27811 23.2758 8.35213 23.3546C8.42615 23.4334 8.48326 23.5265 8.51991 23.6282C8.55657 23.7299 8.57201 23.8381 8.56527 23.946C8.57201 24.0539 8.55657 24.162 8.51991 24.2637C8.48326 24.3654 8.42615 24.4585 8.35213 24.5373C8.27811 24.6161 8.18873 24.6789 8.0895 24.7218C7.99028 24.7647 7.88332 24.7869 7.77521 24.7869C7.6671 24.7869 7.56013 24.7647 7.46091 24.7218C7.36169 24.6789 7.27231 24.6161 7.19828 24.5373C7.12426 24.4585 7.06716 24.3654 7.0305 24.2637C6.99384 24.162 6.97841 24.0539 6.98514 23.946Z"
          fill="#0F0E0E"/>
    <path d="M20.2756 2.78711H11.6973V18.1983H20.2756V2.78711Z" fill="#FF5A00"/>
    <path d="M12.2703 10.4927C12.2706 9.01029 12.6062 7.54719 13.2519 6.21285C13.8976 4.87852 14.8368 3.7075 15.999 2.78743C14.7703 1.82323 13.3289 1.16671 11.795 0.872587C10.261 0.578464 8.67903 0.65526 7.1808 1.09657C5.68257 1.53789 4.31154 2.33094 3.18198 3.40961C2.05242 4.48829 1.19707 5.82134 0.68721 7.29765C0.177355 8.77396 0.0277721 10.3508 0.250931 11.8966C0.47409 13.4425 1.06352 14.9126 1.9701 16.1844C2.87668 17.4562 4.07414 18.4929 5.46265 19.2081C6.85117 19.9233 8.39052 20.2962 9.95239 20.2957C12.1465 20.297 14.2769 19.5581 15.999 18.1986C14.8341 17.2808 13.893 16.1102 13.247 14.7752C12.601 13.4401 12.267 11.9757 12.2703 10.4927Z"
          fill="#EB001B"/>
    <path d="M31.8474 10.4921C31.8489 12.3306 31.3328 14.1324 30.3582 15.6913C29.3836 17.2502 27.9899 18.5033 26.3365 19.3072C24.6831 20.1111 22.8368 20.4334 21.0088 20.2371C19.1808 20.0408 17.445 19.334 16 18.1974C17.1631 17.2778 18.1029 16.1069 18.749 14.7724C19.3951 13.4379 19.7307 11.9744 19.7307 10.4918C19.7307 9.00907 19.3951 7.54563 18.749 6.21113C18.1029 4.87663 17.1631 3.70571 16 2.78614C17.445 1.64955 19.1808 0.942676 21.0088 0.746403C22.8368 0.550129 24.6831 0.872381 26.3365 1.67629C27.9899 2.4802 29.3836 3.73329 30.3582 5.2922C31.3328 6.85112 31.8489 8.65289 31.8474 10.4914V10.4921Z"
          fill="#F79E1B"/>
</svg>
