<svg width="44" height="14" viewBox="0 0 44 14" fill="none" xmlns="http://www.w3.org/2000/svg">
    <path d="M19.1656 13.2299H15.7227L17.8761 0.80957H21.3188L19.1656 13.2299Z" fill="#15195A"/>
    <path d="M31.6481 1.11374C30.969 0.862435 29.8919 0.584961 28.56 0.584961C25.1601 0.584961 22.7658 2.27615 22.7512 4.69403C22.7229 6.47795 24.4654 7.46877 25.7686 8.06359C27.1006 8.6714 27.5534 9.06811 27.5534 9.60989C27.5398 10.442 26.477 10.8255 25.4858 10.8255C24.1112 10.8255 23.3747 10.6278 22.2554 10.1648L21.8021 9.96639L21.3203 12.7545C22.1278 13.0976 23.6155 13.4022 25.1601 13.4155C28.7726 13.4155 31.1245 11.7505 31.1523 9.17383C31.1661 7.75995 30.246 6.67657 28.2624 5.79129C27.0582 5.22299 26.3208 4.8398 26.3208 4.25833C26.3349 3.72972 26.9445 3.1883 28.3038 3.1883C29.4231 3.16178 30.2454 3.41274 30.8684 3.66387L31.1798 3.79576L31.6481 1.11374Z"
          fill="#15195A"/>
    <path fill-rule="evenodd" clip-rule="evenodd"
          d="M37.808 0.810547H40.4711L43.2486 13.2307H40.0608C40.0608 13.2307 39.7489 11.8036 39.65 11.3676H35.2296C35.1018 11.6977 34.5071 13.2307 34.5071 13.2307H30.8945L36.0085 1.84106C36.3628 1.03498 36.9868 0.810547 37.808 0.810547ZM37.5965 5.35604C37.5965 5.35604 36.5055 8.11761 36.222 8.83114H39.0837C38.9421 8.21016 38.2901 5.23715 38.2901 5.23715L38.0495 4.16694C37.9482 4.44252 37.8016 4.82141 37.7028 5.07696C37.6358 5.25019 37.5907 5.36675 37.5965 5.35604Z"
          fill="#15195A"/>
    <path fill-rule="evenodd" clip-rule="evenodd"
          d="M9.47929 9.28L12.851 0.810547H16.4916L11.08 13.2177H7.43919L4.37101 2.42717C3.31155 1.84905 2.10223 1.38413 0.75 1.06158L0.806669 0.810621H6.34595C7.09677 0.836788 7.70601 1.0614 7.90426 1.85466L9.10328 7.53844C9.10582 7.5464 9.10834 7.55435 9.11084 7.5623L9.47929 9.28Z"
          fill="#15195A"/>
</svg>
