<svg width="59" height="20" viewBox="0 0 59 20" fill="none" xmlns="http://www.w3.org/2000/svg">
    <path fill-rule="evenodd" clip-rule="evenodd" d="M11.4063 20.0004V11.3436H21.1964L22.2467 12.6256L23.3318 11.3436H58.8674V19.4034C58.8674 19.4034 57.9381 19.9917 56.8633 20.0004H37.1865L36.0022 18.6358V20.0004H32.1216V17.6709C32.1216 17.6709 31.5914 17.9961 30.4454 17.9961H29.1245V20.0004H23.2488L22.1999 18.6909L21.1349 20.0004H11.4063ZM0 4.81878L2.20269 0H6.01202L7.26207 2.69928V0H11.9974L12.7416 1.95096L13.463 0H34.7198V0.980812C34.7198 0.980812 35.8373 0 37.6737 0L44.5708 0.022619L45.7992 2.68658V0H49.762L50.8527 1.53023V0H54.8518V8.65674H50.8527L49.8075 7.12155V8.65674H43.9853L43.3998 7.29213H41.8345L41.2586 8.65674H37.3102C35.7299 8.65674 34.7198 7.69596 34.7198 7.69596V8.65674H28.7665L27.585 7.29213V8.65674H5.44769L4.86259 7.29213H3.30238L2.72141 8.65674H0V4.81878ZM0.014323 7.54831L2.98527 1.06641H5.23763L8.20574 7.54831H6.22889L5.68356 6.25034H2.49674L1.94857 7.54831H0.014323ZM5.05564 4.84334L4.08426 2.57521L3.11004 4.84334H5.05564ZM8.40823 7.54799V1.06608L11.1569 1.07566L12.7556 5.25478L14.3161 1.06608H17.0427V7.54799H15.3158V2.77185L13.4853 7.54799H11.9708L10.1351 2.77185V7.54799H8.40823ZM18.226 7.54799V1.06608H23.8611V2.51599H19.9711V3.62473H23.7702V4.98934H19.9711V6.14073H23.8611V7.54799H18.226ZM24.8582 7.54831V1.06641H28.7012C29.9745 1.06641 31.1154 1.80528 31.1154 3.1693C31.1154 4.33534 30.1535 5.0864 29.2209 5.16025L31.4932 7.54831H29.3828L27.3123 5.24553H26.5851V7.54831H24.8582ZM28.5608 2.51661H26.5868V3.88123H28.5863C28.9324 3.88123 29.3788 3.62955 29.3788 3.19892C29.3788 2.8642 29.0343 2.51661 28.5608 2.51661ZM33.5863 7.54799H31.823V1.06608H33.5863V7.54799ZM37.7641 7.54799H37.3835C35.542 7.54799 34.4239 6.18658 34.4239 4.33369C34.4239 2.43502 35.5295 1.06608 37.855 1.06608H39.7637V2.60127H37.7852C36.8412 2.60127 36.1736 3.29259 36.1736 4.34968C36.1736 5.60498 36.937 6.1322 38.0368 6.1322H38.4912L37.7641 7.54799ZM38.5497 7.54831L41.5207 1.06641H43.773L46.7411 7.54831H44.7643L44.219 6.25034H41.0321L40.484 7.54831H38.5497ZM43.591 4.84334L42.6197 2.57521L41.6454 4.84334H43.591ZM46.9435 7.54799V1.06608H49.1391L51.9424 5.1386V1.06608H53.6693V7.54799H51.5448L48.6704 3.36887V7.54799H46.9435ZM12.5879 18.8916V12.4097H18.2231V13.8596H14.333V14.9684H18.1322V16.333H14.333V17.4844H18.2231V18.8916H12.5879ZM40.202 18.8916V12.4097H45.8371V13.8596H41.947V14.9684H45.728V16.333H41.947V17.4844H45.8371V18.8916H40.202ZM18.4443 18.8916L21.188 15.6906L18.379 12.4097H20.5546L22.2276 14.438L23.9062 12.4097H25.9966L23.2245 15.6507L25.9733 18.8916H23.798L22.1736 16.8953L20.5887 18.8916H18.4443ZM26.1746 18.8912V12.4093H29.9892C31.5544 12.4093 32.4687 13.3559 32.4687 14.5894C32.4687 16.0785 31.3029 16.8442 29.7648 16.8442H27.947V18.8912H26.1746ZM29.8631 13.8749H27.9487V15.3675H29.8574C30.3618 15.3675 30.7152 15.0538 30.7152 14.6212C30.7152 14.1607 30.36 13.8749 29.8631 13.8749ZM33.2229 18.8912V12.4093H37.0658C38.3391 12.4093 39.48 13.1481 39.48 14.5121C39.48 15.6782 38.5181 16.4292 37.5856 16.5031L39.8578 18.8912H37.7475L35.6769 16.5884H34.9498V18.8912H33.2229ZM36.9254 13.8595H34.9514V15.2241H36.951C37.2971 15.2241 37.7434 14.9724 37.7434 14.5418C37.7434 14.207 37.3989 13.8595 36.9254 13.8595ZM46.6354 18.8916V17.4844H50.0915C50.6029 17.4844 50.8243 17.225 50.8243 16.9406C50.8243 16.6682 50.6036 16.3927 50.0915 16.3927H48.5298C47.1722 16.3927 46.4162 15.6165 46.4162 14.4513C46.4162 13.412 47.1085 12.4097 49.1258 12.4097H52.4887L51.7616 13.8681H48.8531C48.2972 13.8681 48.126 14.1419 48.126 14.4033C48.126 14.672 48.3375 14.9684 48.7623 14.9684H50.3983C51.9116 14.9684 52.5683 15.7739 52.5683 16.8287C52.5683 17.9628 51.8365 18.8916 50.3159 18.8916H46.6354ZM52.7194 18.8916V17.4844H56.1755C56.6869 17.4844 56.9083 17.225 56.9083 16.9406C56.9083 16.6682 56.6876 16.3927 56.1755 16.3927H54.6138C53.2562 16.3927 52.5002 15.6165 52.5002 14.4513C52.5002 13.412 53.1925 12.4097 55.2098 12.4097H58.5727L57.8456 13.8681H54.9371C54.3812 13.8681 54.21 14.1419 54.21 14.4033C54.21 14.672 54.4215 14.9684 54.8463 14.9684H56.4823C57.9956 14.9684 58.6523 15.7739 58.6523 16.8287C58.6523 17.9628 57.9205 18.8916 56.3999 18.8916H52.7194Z" fill="white"/>
</svg>
