<svg width="154" height="148" viewBox="0 0 154 148" fill="none" xmlns="http://www.w3.org/2000/svg">
    <g clip-path="url(#clip0_3663_4461)">
        <path opacity="0.05" d="M88 23C39.4684 23 0 62.4684 0 111C0 159.532 39.4684 199 88 199C136.532 199 176 159.532 176 111C176 62.4684 136.532 23 88 23ZM88 34.7333C130.19 34.7333 164.312 68.8096 164.312 111C164.312 153.19 130.19 187.312 88 187.312C45.8096 187.312 11.7333 153.19 11.7333 111C11.7333 68.8096 45.8096 34.7333 88 34.7333ZM87.9198 64.101C86.3699 64.1283 84.8937 64.7679 83.8138 65.88C82.7339 66.9921 82.138 68.4864 82.1562 70.0365V74.975C72.6836 76.752 64.5792 82.8518 64.5792 93.4229C64.5792 100.756 67.8851 106.687 72.325 110.141C76.7649 113.594 81.7781 115.125 86.1781 116.592C90.5781 118.058 94.3764 119.461 96.5365 121.141C98.6966 122.821 99.7333 124.234 99.7333 128.634C99.7333 138.412 76.3125 138.412 76.3125 128.634C76.3298 127.853 76.1909 127.076 75.9039 126.349C75.6168 125.622 75.1875 124.96 74.641 124.401C74.0945 123.842 73.4419 123.398 72.7215 123.095C72.0011 122.792 71.2274 122.636 70.4458 122.636C69.6643 122.636 68.8906 122.792 68.1702 123.095C67.4498 123.398 66.7972 123.842 66.2507 124.401C65.7042 124.96 65.2748 125.622 64.9878 126.349C64.7008 127.076 64.5618 127.853 64.5792 128.634C64.5792 139.197 72.6908 145.309 82.1562 147.094V152.009C82.1389 152.791 82.2778 153.568 82.5649 154.295C82.8519 155.022 83.2813 155.684 83.8278 156.243C84.3743 156.801 85.0269 157.245 85.7473 157.548C86.4677 157.852 87.2414 158.008 88.0229 158.008C88.8045 158.008 89.5782 157.852 90.2986 157.548C91.019 157.245 91.6716 156.801 92.2181 156.243C92.7645 155.684 93.1939 155.022 93.4809 154.295C93.768 153.568 93.9069 152.791 93.8896 152.009V147.094C103.357 145.31 111.478 139.199 111.478 128.634C111.478 121.301 108.161 115.37 103.721 111.917C99.2809 108.463 94.2677 106.921 89.8677 105.454C85.4677 103.988 81.6695 102.597 79.5094 100.917C77.3493 99.2366 76.3125 97.8229 76.3125 93.4229C76.3125 83.6451 99.7333 83.6451 99.7333 93.4229C99.7333 94.9804 100.352 96.474 101.453 97.5753C102.555 98.6766 104.048 99.2953 105.606 99.2953C107.163 99.2953 108.657 98.6766 109.758 97.5753C110.859 96.474 111.478 94.9804 111.478 93.4229C111.478 82.8677 103.354 76.774 93.8896 74.9865V70.0365C93.8988 69.2515 93.7505 68.4727 93.4533 67.7462C93.1561 67.0196 92.7162 66.3601 92.1595 65.8067C91.6029 65.2532 90.9408 64.8171 90.2125 64.5241C89.4843 64.2311 88.7046 64.0873 87.9198 64.101H87.9198Z" fill="#7B92DC"/>
    </g>
    <defs>
        <clipPath id="clip0_3663_4461">
            <rect width="154" height="148" fill="white"/>
        </clipPath>
    </defs>
</svg>
