<svg width="18" height="15" viewBox="0 0 18 15" fill="none" xmlns="http://www.w3.org/2000/svg">
    <path d="M16.9992 3.60034H12.4656V1.20034C12.4656 0.988199 12.3814 0.784764 12.2314 0.634764C12.0814 0.484631 11.8778 0.400391 11.6657 0.400391H6.33286C6.12072 0.400391 5.91715 0.484631 5.76715 0.634764C5.61715 0.784764 5.53291 0.988216 5.53291 1.20034V6.80023L0.999307 6.80036C0.78703 6.80036 0.583592 6.8846 0.433592 7.0346C0.283592 7.1846 0.199219 7.38816 0.199219 7.60032V14.0004C0.199219 14.2126 0.283592 14.416 0.433592 14.566C0.583592 14.7161 0.787044 14.8004 0.999307 14.8004H16.9991C17.2114 14.8004 17.4148 14.7161 17.5648 14.566C17.7148 14.416 17.7992 14.2126 17.7992 14.0004V4.40043C17.7992 4.18815 17.7148 3.98472 17.5648 3.83472C17.4148 3.68472 17.2113 3.60034 16.9991 3.60034H16.9992ZM5.53304 13.2003H1.79933V8.40034H5.53304V13.2003ZM10.8658 4.40057V13.2003H7.13282V2.00057H10.8658V4.40057ZM16.1993 13.2003H12.4656V5.20046H16.1993V13.2003Z"
          fill="white"/>
</svg>
