<svg width="33" height="20" viewBox="0 0 33 20" fill="none" xmlns="http://www.w3.org/2000/svg">
    <path d="M20.9652 17.8635H12.0391V2.13965H20.9652V17.8635Z" fill="#FF5F00"/>
    <path d="M12.6093 10C12.6093 6.81035 14.1329 3.9691 16.5056 2.13809C14.7705 0.79916 12.5807 0 10.2009 0C4.56697 0 0 4.47708 0 10C0 15.5229 4.56697 20 10.2009 20C12.5807 20 14.7705 19.2008 16.5056 17.8619C14.1329 16.0309 12.6093 13.1896 12.6093 10Z"
          fill="#EB001B"/>
    <path d="M32.9984 10C32.9984 15.5229 28.4314 20 22.7975 20C20.4177 20 18.2279 19.2008 16.4922 17.8619C18.8655 16.0309 20.3891 13.1896 20.3891 10C20.3891 6.81035 18.8655 3.9691 16.4922 2.13809C18.2279 0.79916 20.4177 0 22.7975 0C28.4314 0 32.9984 4.47708 32.9984 10Z"
          fill="#F79E1B"/>
</svg>
