<svg width="53" height="43" viewBox="0 0 53 43" fill="none" xmlns="http://www.w3.org/2000/svg">
    <path d="M19.7397 42.7119C18.7261 42.4072 17.7353 42.0324 16.7746 41.5903C15.8129 41.1533 14.8821 40.6525 13.9884 40.0913C12.2077 38.9632 10.5663 37.6172 9.14847 36.0671C6.28857 32.9879 4.30526 29.1375 3.43997 25.0596C3.22829 24.0394 3.08116 23.007 2.99944 21.9685L2.95567 21.1892C2.94061 20.9295 2.94532 20.6692 2.9392 20.4093C2.9392 20.2792 2.93379 20.1492 2.93567 20.0193L2.95191 19.6295L2.98462 18.8504C3.10537 16.7737 3.50535 14.7222 4.17395 12.7505C5.50588 8.8147 7.92525 5.25892 11.0817 2.55504L11.1577 2.64089C8.0568 5.37695 5.71344 8.93694 4.45634 12.8424C3.82601 14.7944 3.46133 16.8211 3.37196 18.8688L3.35031 19.6365L3.33996 20.0198C3.33996 20.1476 3.34608 20.2764 3.3489 20.403C3.35878 20.6596 3.35784 20.9144 3.37643 21.1693L3.43056 21.934C3.52566 22.9511 3.68474 23.9614 3.90686 24.9589C4.81356 28.9413 6.80699 32.6695 9.63183 35.6223C11.0322 37.1094 12.644 38.3921 14.3854 39.4598C15.2579 39.9903 16.1654 40.4618 17.102 40.8711C18.0355 41.2846 18.9971 41.6326 19.9797 41.9125C20.2118 42.2747 20.1433 42.5444 19.7397 42.7119ZM12.222 37.212C12.1985 37.5449 12.3284 37.8563 12.5301 38.1451C12.7273 38.4393 13.0127 38.6861 13.2852 38.9037C13.5912 38.4323 13.8265 37.9905 13.7578 37.2636C13.7283 36.9267 13.6274 36.5997 13.4617 36.3041C13.3086 36.0208 13.1108 35.7636 12.8758 35.5422C12.8391 35.9299 12.691 36.1917 12.5416 36.4315C12.3922 36.6713 12.2439 36.8917 12.222 37.212ZM8.22812 33.0161C8.13258 33.3084 8.16952 33.6285 8.28012 33.9415C8.40742 34.2532 8.57675 34.5463 8.78348 34.8128C9.17836 34.4589 9.49605 34.1174 9.61865 33.4316C9.67607 33.1066 9.64971 32.7899 9.581 32.4845C9.54493 32.3351 9.49515 32.1892 9.43227 32.0487C9.37444 31.9099 9.30689 31.7752 9.23013 31.6456C9.09999 31.9939 8.90067 32.1978 8.70653 32.3816C8.51239 32.5654 8.3206 32.732 8.22812 33.0161ZM5.24891 27.7248C4.91781 28.2109 5.06747 28.9224 5.29292 29.4965C5.74333 29.2756 6.11185 29.0507 6.40012 28.4577C6.66698 27.8965 6.64768 27.2711 6.49778 26.7315C6.28857 27.0175 6.06266 27.1514 5.84052 27.268C5.61837 27.3847 5.40705 27.4892 5.24891 27.7248ZM3.84873 21.5878C3.63835 21.7644 3.51175 22.0222 3.45786 22.3075C3.42908 22.4536 3.41208 22.6019 3.40703 22.7507C3.39957 22.8986 3.40421 23.0468 3.42091 23.1939C3.88473 23.1134 4.27161 23.0094 4.6886 22.5498C4.87753 22.3376 5.01772 22.0872 5.09948 21.816C5.18695 21.5573 5.22983 21.2858 5.22632 21.013C4.71849 21.428 4.25843 21.2482 3.84873 21.5878ZM4.22996 15.4191C3.77554 15.6331 3.56211 16.2274 3.44444 16.7514C3.87697 16.7959 4.26361 16.8025 4.75143 16.4948C4.97497 16.3516 5.16355 16.1609 5.30351 15.9365C5.37528 15.8288 5.4247 15.7126 5.484 15.5981C5.5395 15.4847 5.58593 15.3671 5.62284 15.2465C5.05194 15.4919 4.69166 15.2185 4.22996 15.4191ZM6.0909 9.85604C5.63155 9.94002 5.29362 10.4194 5.05736 10.8591C5.43246 11.0026 5.77557 11.102 6.28834 10.9419C6.52451 10.867 6.74107 10.7413 6.92254 10.5738C7.01078 10.4933 7.09158 10.405 7.16398 10.3102C7.23458 10.2169 7.31176 10.1236 7.37177 10.0252C6.80229 10.1126 6.53708 9.77719 6.0909 9.85604ZM8.89903 5.54048C8.68088 5.52881 8.46791 5.61046 8.27001 5.73549C8.08175 5.86939 7.91302 6.05041 7.76688 6.22653C8.07139 6.43298 8.35519 6.59277 8.83949 6.54775C8.95246 6.53743 9.06373 6.51346 9.17083 6.47637C9.27965 6.4431 9.38513 6.39991 9.48593 6.34737C9.68157 6.24399 9.85864 6.10929 10.01 5.94871C9.48475 5.91768 9.32167 5.56637 8.89903 5.54118V5.54048ZM15.9804 40.0967C16.0857 40.2791 16.2036 40.4541 16.3334 40.6204C16.5115 40.2189 16.6628 39.8314 16.7363 39.4074C16.8097 38.9833 16.804 38.5228 16.6949 37.9632C16.472 36.8759 15.8293 36.0454 15.1111 35.4387C15.0824 36.0552 14.88 36.4989 14.6718 36.9069C14.4673 37.3144 14.2515 37.6972 14.2691 38.2065C14.2927 39.1818 15.1495 40.0055 16.0595 40.5532C15.8815 40.2873 15.726 40.0072 15.5947 39.7157C15.4354 39.3817 15.324 39.0272 15.2636 38.6625C15.1777 38.115 15.2596 37.7761 15.3297 37.4626C15.3999 37.149 15.4585 36.8742 15.3679 36.466C15.5291 36.9214 15.462 37.2591 15.3992 37.644C15.3413 38.0264 15.2867 38.4535 15.5284 39.1223C15.6576 39.4564 15.8086 39.7819 15.9804 40.0967ZM10.9548 36.2962C10.9854 36.4634 11.0214 36.609 11.0553 36.7394C11.1054 36.9343 11.1683 37.1258 11.2436 37.3126C11.774 36.6655 12.1778 36.0296 12.2308 34.9579C12.2945 33.8958 11.8992 32.9674 11.3735 32.2337C11.1923 32.8052 10.9096 33.1573 10.6188 33.4848C10.3319 33.8114 10.0486 34.1069 9.93634 34.5861C9.88374 34.8103 9.87725 35.0428 9.91728 35.2695C9.95714 35.5053 10.0284 35.7347 10.1291 35.9519C10.2405 36.1769 10.3703 36.3925 10.5171 36.5966C10.6647 36.8066 10.8402 36.9946 11.0113 37.1798C10.9374 36.9466 10.8426 36.6414 10.7889 36.2983C10.7353 35.9551 10.7054 35.591 10.7397 35.25C10.7995 34.7193 10.9567 34.4258 11.0927 34.1575C11.2287 33.8893 11.3457 33.6527 11.3669 33.2478C11.3972 33.7166 11.2671 33.9998 11.1155 34.3404C10.9711 34.6777 10.8047 35.0708 10.8765 35.7331C10.8998 35.9383 10.9261 36.1266 10.9548 36.2962ZM7.08279 32.1061C7.07832 32.3611 7.0915 32.5507 7.11292 32.6767C7.43554 32.4458 7.73017 32.2141 7.98056 31.9165C8.23471 31.6177 8.4465 31.2512 8.60675 30.7662C8.93174 29.8063 8.78325 28.8571 8.48697 28.0462C8.19188 28.5237 7.83536 28.7829 7.49014 29.0115C7.14492 29.2401 6.8077 29.4466 6.59355 29.8553C6.18174 30.6295 6.47072 31.661 6.93054 32.4992C6.91873 32.2114 6.92509 31.9231 6.9496 31.6361C6.98068 31.3032 7.05438 30.9756 7.16892 30.6612C7.34424 30.1947 7.57015 29.9598 7.76123 29.7475C7.95232 29.5352 8.12457 29.3425 8.23376 28.9789C8.15917 29.4121 7.95655 29.647 7.73535 29.9215C7.51155 30.1996 7.28211 30.5084 7.17198 31.1394C7.09997 31.5355 7.09009 31.8493 7.08279 32.1061ZM4.40574 26.3163C4.34913 26.4879 4.30779 26.664 4.2822 26.8428C4.63518 26.7177 4.96464 26.5843 5.27056 26.3795C5.58025 26.174 5.86923 25.8957 6.14291 25.4947C6.20897 25.3983 6.26916 25.298 6.32317 25.1945C6.48755 24.8979 6.60336 24.5774 6.66627 24.2448C6.76793 23.8128 6.7684 23.3817 6.7411 22.9693C6.34599 23.3334 5.95324 23.4787 5.58072 23.5991C5.2082 23.7195 4.85686 23.8198 4.55282 24.1382C4.26525 24.4394 4.11159 24.8432 4.06923 25.2812C4.01275 25.7219 4.07605 26.191 4.16336 26.6342C4.22895 26.3692 4.31108 26.1084 4.40927 25.8535C4.52319 25.5578 4.67607 25.2784 4.86392 25.0225C5.1496 24.6421 5.40375 24.4879 5.63743 24.3426C5.87111 24.1972 6.07443 24.0661 6.27069 23.7594C6.08784 24.1377 5.84075 24.3003 5.56801 24.4937C5.30068 24.688 5.00606 24.912 4.73943 25.4585C4.60726 25.736 4.49574 26.0227 4.40574 26.3163ZM3.20324 20.3025C3.91203 20.2663 4.52341 20.1607 5.25056 19.57C5.60731 19.2817 5.85934 18.9336 6.04854 18.563C6.24936 18.2058 6.3848 17.8162 6.44859 17.4122C6.00501 17.6455 5.6146 17.6782 5.24703 17.6922C4.87945 17.7062 4.53305 17.7076 4.1716 17.9189C3.46562 18.3155 3.24442 19.2332 3.15029 20.0816C3.3649 19.7221 3.7586 19.1562 4.21725 18.8035C4.3623 18.6887 4.52177 18.593 4.69166 18.5189C4.82293 18.4658 4.9574 18.421 5.0943 18.3845C5.3428 18.3145 5.56495 18.246 5.82498 18.0171C5.55554 18.3157 5.28915 18.3999 4.98935 18.5056C4.68954 18.6113 4.37397 18.7412 3.99534 19.1685C3.52822 19.7044 3.28936 20.0937 3.20324 20.3025ZM4.00922 13.9913C4.65636 14.1366 5.23503 14.1961 6.04313 13.8434C6.43871 13.6715 6.75475 13.4184 7.0209 13.1289C7.29346 12.8532 7.51505 12.5323 7.67558 12.1806C7.21457 12.2844 6.85359 12.2172 6.51754 12.1398C6.1815 12.0623 5.86828 11.9777 5.48824 12.0805C4.75026 12.2648 4.3182 13.037 4.0151 13.7797C4.30291 13.5096 4.80015 13.0969 5.30468 12.8933C5.68944 12.7342 5.96053 12.7363 6.20409 12.733C6.44765 12.7297 6.66368 12.7237 6.95713 12.5802C6.63779 12.785 6.37564 12.7953 6.07819 12.8167C5.78074 12.8382 5.46211 12.8769 5.01147 13.1685C4.45634 13.5338 4.13512 13.8233 4.00922 13.9913ZM6.20997 8.67964C6.76322 8.95957 7.27435 9.14805 8.07304 9.00039C8.87973 8.87069 9.48051 8.37895 9.95116 7.85292C9.50405 7.84405 9.18965 7.70269 8.90162 7.55783C8.61358 7.41296 8.3479 7.2667 7.97656 7.2723C7.62804 7.2793 7.31765 7.43559 7.02537 7.6593C6.73828 7.88511 6.46365 8.1725 6.26739 8.48999C6.56555 8.29707 7.12774 8.04677 7.63581 7.97679C8.02833 7.92313 8.26789 7.98122 8.4858 8.02974C8.59219 8.05605 8.70056 8.07376 8.80984 8.08269C8.93965 8.08866 9.06969 8.07792 9.19671 8.05073C9.02281 8.10509 8.88703 8.12818 8.75266 8.12585C8.61829 8.12352 8.4938 8.10252 8.35755 8.07919C8.08692 8.03674 7.78265 7.99545 7.30235 8.15571C6.69333 8.35259 6.37706 8.56464 6.20974 8.67964H6.20997ZM9.13294 4.5297C9.57394 4.89034 10.0105 5.17354 10.7734 5.19943C11.1485 5.21389 11.4977 5.13528 11.8194 5.00465C12.1434 4.88796 12.445 4.71741 12.7113 4.50031C12.3063 4.41167 12.0498 4.22458 11.817 4.03843C11.5843 3.85228 11.3716 3.66939 11.0351 3.60617C10.3865 3.47274 9.75231 3.91223 9.22801 4.37294C9.55558 4.27334 10.1018 4.14154 10.575 4.17256C10.726 4.1808 10.8754 4.20768 11.0198 4.25257C11.1287 4.29022 11.2352 4.33439 11.3386 4.38484C11.5292 4.47395 11.7015 4.55 11.9888 4.54673C11.6573 4.58896 11.4476 4.49868 11.2078 4.4035C10.968 4.30833 10.7037 4.21945 10.2397 4.2766C9.66171 4.35032 9.30873 4.45902 9.1327 4.5297H9.13294ZM10.2406 39.1169C10.0194 39.2968 9.77655 39.479 9.34355 39.5352C9.65724 39.7722 10.0069 39.9873 10.3825 40.1184C10.7609 40.2457 11.1466 40.3111 11.526 40.2583C12.3204 40.1445 12.6454 39.7685 12.9908 39.3234C12.681 39.1231 12.3527 38.9524 12.0103 38.8137C11.669 38.6849 11.3149 38.6257 10.9842 38.6905C10.66 38.757 10.4611 38.9357 10.2406 39.1169ZM5.98242 34.2648C5.73815 34.3759 5.47412 34.4839 5.07124 34.4314C5.18156 34.5803 5.30318 34.7207 5.43505 34.8513C5.57045 34.9801 5.71594 35.098 5.87017 35.204C6.17232 35.4158 6.51778 35.5572 6.87335 35.6006C7.61463 35.6925 8.00738 35.4251 8.43191 35.1044C8.20247 34.8609 7.9502 34.6022 7.66428 34.4092C7.38824 34.2093 7.0875 34.0663 6.76369 34.0526C6.44789 34.0395 6.22621 34.1536 5.98242 34.2648ZM3.03215 28.2464C2.78295 28.286 2.51115 28.3199 2.16498 28.1727C2.41396 28.8074 2.87096 29.416 3.49292 29.6696C4.13488 29.9386 4.56482 29.7942 5.02794 29.6134C4.74155 29.0575 4.3608 28.4377 3.79343 28.2478C3.51504 28.1575 3.28183 28.2063 3.03215 28.2464ZM1.05378 21.1962C1.08633 21.5149 1.16602 21.8272 1.29028 22.123C1.42348 22.4141 1.61291 22.6744 1.85318 22.8694C2.35536 23.2751 2.78248 23.2583 3.24418 23.2177C3.21359 23.0752 3.18206 22.9273 3.14652 22.7801C3.10992 22.6338 3.06209 22.4904 3.00345 22.3513C2.88155 22.0779 2.72953 21.8351 2.4982 21.6781C2.04732 21.3671 1.61527 21.6286 1.05378 21.1971V21.1962ZM1.82729 14.3785C1.79885 14.5233 1.78037 14.6698 1.77199 14.8171C1.76117 14.9645 1.78164 15.1164 1.80353 15.2624C1.85271 15.5556 1.95319 15.8341 2.11957 16.0672C2.46879 16.555 2.8406 16.6455 3.26724 16.7257C3.33266 16.1892 3.33243 15.5593 2.98485 15.1614C2.66787 14.7751 2.2104 14.9003 1.82729 14.3794V14.3785ZM4.70884 8.93741C4.54811 8.81634 4.38292 8.68081 4.27537 8.40368C4.21327 8.52431 4.16269 8.65044 4.1243 8.78041C4.08829 8.91279 4.06311 9.04782 4.04899 9.18421C4.02146 9.45527 4.04334 9.72587 4.13465 9.97221C4.32691 10.4882 4.63613 10.6587 4.99688 10.8328C5.18726 10.372 5.34257 9.81218 5.12984 9.37643C5.02559 9.16461 4.86886 9.05754 4.70884 8.93741ZM7.56709 3.86721C7.41344 4.06327 7.29004 4.28088 7.20093 4.51291C7.15733 4.62685 7.12655 4.74521 7.10915 4.86585C7.09572 4.98783 7.09738 5.11098 7.11409 5.23256C7.18728 5.73923 7.42825 5.95734 7.71417 6.18898C7.84171 5.99839 7.96573 5.78262 8.04598 5.56124C8.13658 5.34803 8.18105 5.12665 8.13422 4.91321C8.04551 4.49495 7.65675 4.4098 7.56709 3.86721ZM11.9011 2.08546C11.6657 2.10576 11.4485 2.20933 11.2577 2.35443C11.0746 2.50909 10.916 2.70177 10.7842 2.88583C11.1372 3.03162 11.4528 3.13729 11.9608 3.03092C12.4571 2.94578 12.8537 2.65372 13.1276 2.31314C12.5736 2.35746 12.3562 2.04767 11.9011 2.08546ZM11.8368 0.613976C11.4158 0.825788 10.9913 1.1869 10.7833 1.66184C10.5802 2.17504 10.6607 2.51119 10.771 2.8716C10.968 2.75776 11.1732 2.62059 11.3443 2.4545C11.5234 2.29774 11.6716 2.11509 11.7425 1.89138C11.8829 1.45563 11.6271 1.1764 11.8368 0.613976ZM14.2802 41.2707C13.5304 41.3477 13.1257 41.5672 12.7718 41.7697C12.4188 41.9659 12.1129 42.1469 11.5097 42.104C12.0166 42.0856 12.27 41.9349 12.5475 41.7597C12.8249 41.5845 13.1252 41.3832 13.7006 41.2269C14.0726 41.127 14.4772 41.0729 14.8589 41.0286C15.2384 40.9882 15.5844 40.9768 15.8491 40.96C14.8469 40.5467 13.7192 40.1587 12.7428 40.4517C12.2206 40.615 11.9307 40.9229 11.5996 41.2467C11.2678 41.5668 10.9021 41.8943 10.1919 42.0268C10.4757 42.213 10.7722 42.3795 11.0793 42.5251C11.3897 42.6626 11.7104 42.7761 12.0385 42.8645C12.695 43.0205 13.3542 43.0562 13.967 42.895C14.5849 42.7408 15.0036 42.4847 15.3224 42.18C15.6413 41.8754 15.8592 41.5215 16.0738 41.1382C15.8545 41.135 15.6351 41.1428 15.4166 41.1616C15.1255 41.1763 14.7532 41.2101 14.2802 41.2707ZM9.22801 37.3793C8.5098 37.2818 8.09845 37.3746 7.72311 37.4775C7.53626 37.5272 7.36071 37.5752 7.16398 37.5895C6.96725 37.6037 6.74981 37.5834 6.48342 37.4887C6.94466 37.5971 7.21975 37.5134 7.51767 37.4187C7.81559 37.324 8.14222 37.2074 8.70206 37.2069C9.07486 37.2065 9.44699 37.2383 9.8142 37.3021C10.1672 37.3611 10.5014 37.4208 10.7411 37.4779C10.5402 37.3186 10.3204 37.1705 10.1058 37.0214C9.89171 36.8731 9.66674 36.741 9.43274 36.626C9.21147 36.5092 8.97797 36.4166 8.73642 36.3501C8.5018 36.2874 8.25922 36.259 8.01632 36.2656C7.50426 36.2859 7.15669 36.5071 6.77522 36.7256C6.39471 36.9403 5.96947 37.1635 5.29668 37.1124C6.13491 38.0588 7.344 38.7938 8.53427 38.7999C9.75349 38.7934 10.3143 38.2937 10.9009 37.6996C10.7025 37.6401 10.5009 37.5915 10.2971 37.554C10.1599 37.5272 10.0015 37.5015 9.82362 37.4728C9.64571 37.4441 9.45016 37.4105 9.22801 37.3793ZM5.32892 32.1948C4.70884 31.9246 4.28949 31.9209 3.92968 31.9195C3.56563 31.9181 3.24512 31.9251 2.79495 31.6316C3.19806 31.8365 3.46374 31.8295 3.75978 31.8143C4.05582 31.7991 4.37397 31.777 4.89616 31.9076C5.23479 31.9916 5.5713 32.1302 5.88452 32.2673C6.19774 32.4045 6.47942 32.5458 6.68462 32.6567C6.09514 31.8869 5.40093 31.08 4.50223 30.8838C4.02193 30.7823 3.65859 30.8961 3.25501 31.0046C2.85143 31.1131 2.41961 31.2062 1.80753 31.0046C2.33018 32.069 3.26089 33.0217 4.34126 33.3173C4.89686 33.4659 5.33174 33.4572 5.71556 33.3667C6.09937 33.2762 6.43565 33.0959 6.77852 32.8953C6.66227 32.8283 6.49825 32.732 6.26316 32.6154C6.1455 32.557 6.00948 32.4931 5.85369 32.4238L5.32892 32.1948ZM2.88272 25.9181C2.39254 25.5143 2.01908 25.403 1.68469 25.3116C1.35523 25.2183 1.06367 25.1427 0.734918 24.7638C1.04461 25.0505 1.28675 25.1119 1.55855 25.1732C1.83035 25.2346 2.13322 25.2938 2.56833 25.5465C2.85378 25.7098 3.1164 25.922 3.36985 26.1255C3.61929 26.33 3.83461 26.5314 3.99087 26.6853C3.83408 26.2508 3.63533 25.8323 3.39738 25.4357C3.27876 25.2477 3.14169 25.0718 2.98815 24.9106C2.84133 24.7538 2.66953 24.6221 2.47961 24.5205C2.07344 24.3064 1.70304 24.3192 1.30911 24.315C0.915177 24.3108 0.499594 24.2863 0 23.9509C0.096483 24.4951 0.305922 25.0396 0.578192 25.5197C0.720375 25.754 0.885932 25.9736 1.07237 26.1751C1.16305 26.2725 1.25971 26.3642 1.36182 26.4497C1.46597 26.5328 1.57555 26.6089 1.68986 26.6776C2.15322 26.9543 2.54927 27.0595 2.92108 27.076C3.2976 27.091 3.64612 27.0177 4.0104 26.9254C3.92286 26.8346 3.79861 26.7054 3.61764 26.5384C3.43668 26.3713 3.18959 26.1684 2.88272 25.9181ZM2.29771 19.1037C1.95437 18.6138 1.63739 18.4174 1.36418 18.2504C1.09096 18.0834 0.849757 17.9399 0.655614 17.517C0.857758 17.8527 1.0599 17.9695 1.28817 18.0939C1.41418 18.1587 1.53642 18.2305 1.65433 18.3089C1.81675 18.4194 1.96735 18.546 2.1038 18.6868C2.53633 19.1275 2.88531 19.724 3.08157 20.0813C3.04557 19.2306 2.85543 18.2998 2.29653 17.7421C1.98802 17.4456 1.65057 17.3635 1.29499 17.2594C0.939415 17.1554 0.565485 17.0262 0.191319 16.599C0.159315 17.1136 0.191319 17.6525 0.308981 18.1519C0.446175 18.6523 0.6855 19.1135 1.01495 19.4746C1.68563 20.2068 2.33277 20.275 3.03663 20.3034C2.81975 19.8864 2.5728 19.4855 2.29771 19.1037ZM3.49151 12.681C3.30607 12.1531 3.0691 11.8974 2.86507 11.6779C2.66105 11.4584 2.47961 11.2715 2.40902 10.8442C2.50762 11.1962 2.66058 11.3518 2.83542 11.5207C3.01027 11.6896 3.20418 11.8694 3.42185 12.2588C3.69977 12.7638 3.86544 13.3901 3.94874 13.7615C4.13488 12.9849 4.19866 12.0964 3.83461 11.4551C3.63035 11.1115 3.34631 10.9541 3.05122 10.7723C2.75612 10.5906 2.45137 10.3814 2.22076 9.90456C2.06332 10.3587 1.95743 10.8502 1.93837 11.3275C1.93578 11.8113 2.03556 12.2863 2.24123 12.6938C2.66058 13.521 3.22653 13.7456 3.85603 13.9491C3.80261 13.7305 3.72966 13.3379 3.49151 12.681ZM6.08008 7.4013C6.03748 6.88647 5.88735 6.60817 5.7478 6.36183C5.6772 6.2389 5.61178 6.1239 5.56495 5.9886C5.50958 5.83151 5.49052 5.66409 5.50918 5.49872C5.50882 5.6387 5.53558 5.77744 5.58801 5.90742C5.63308 6.01264 5.68825 6.11334 5.75274 6.20811C5.87699 6.40079 6.01772 6.61144 6.11938 7.00683C6.25257 7.52214 6.24174 8.11465 6.25586 8.48346C6.40294 8.13844 6.57614 7.7897 6.6618 7.42836C6.7524 7.07005 6.76275 6.70148 6.6618 6.36743C6.55755 6.01449 6.33587 5.80944 6.10996 5.5806C5.88405 5.35176 5.65649 5.09749 5.55648 4.62115C5.03877 5.3443 4.7632 6.30538 4.94228 7.12557C5.14843 7.97352 5.60543 8.30593 6.12502 8.63228C6.14244 8.43027 6.12714 8.03534 6.08008 7.4013ZM9.32261 3.3904C9.38097 2.91125 9.29578 2.62549 9.21836 2.37752C9.14094 2.12955 9.07293 1.91634 9.17977 1.56107C9.12423 1.86875 9.18424 2.04674 9.25601 2.24316C9.29774 2.34991 9.33326 2.45895 9.36238 2.56974C9.40201 2.72294 9.42504 2.87988 9.4311 3.03792C9.45463 3.53363 9.33979 4.08275 9.26025 4.40327C9.70548 3.87304 10.0966 3.20634 10.0568 2.57301C10.0286 2.23033 9.86692 2.00172 9.70572 1.75002C9.54452 1.49832 9.38568 1.22329 9.38285 0.770269C9.09152 1.05883 8.82584 1.39544 8.63193 1.75538C8.45003 2.12862 8.34601 2.52845 8.34954 2.92175C8.36249 3.72351 8.69688 4.10515 9.10611 4.50801C9.164 4.32746 9.25248 3.98758 9.32261 3.3904ZM12.4362 0.951523C12.3891 1.01381 12.3451 1.07796 12.3044 1.14327C12.2637 1.20859 12.2317 1.28137 12.1997 1.35135C12.1381 1.48796 12.0851 1.62819 12.0408 1.77125C12.1805 1.62056 12.3284 1.47766 12.484 1.34319C12.68 1.18866 12.8889 1.05092 13.1085 0.931461C13.4509 0.752074 13.6851 0.692122 13.9039 0.6499C14.1228 0.607677 14.3193 0.573386 14.5729 0.420825C14.3025 0.62354 14.0656 0.664829 13.8006 0.730379C13.5417 0.804094 13.2483 0.893671 12.8654 1.17173C12.7466 1.25828 12.6416 1.33782 12.5496 1.41037C12.4576 1.48292 12.3849 1.55897 12.3206 1.62032C12.2252 1.71289 12.135 1.81062 12.0505 1.91308C12.3384 1.90405 12.6251 1.87175 12.9078 1.8165C13.2362 1.75523 13.5517 1.63929 13.8411 1.47359C14.0091 1.38401 14.1522 1.26807 14.296 1.16473C14.4338 1.06041 14.5612 0.943237 14.6765 0.814824C14.8923 0.572688 15.0671 0.297521 15.1942 0C14.7821 0.163291 14.4494 0.176588 14.1322 0.182187C13.815 0.187785 13.5097 0.178688 13.1826 0.33778C12.8701 0.482176 12.6249 0.70262 12.4362 0.951523ZM33.26 42.7119C34.2736 42.4069 35.2644 42.0319 36.2251 41.5896C37.1869 41.1526 38.1178 40.6517 39.0116 40.0906C40.7921 38.9625 42.4335 37.6165 43.8513 36.0664C46.7112 32.9872 48.6945 29.1368 49.5598 25.0589C49.7716 24.0387 49.9187 23.0063 50.0003 21.9678L50.0441 21.1885C50.0591 20.9288 50.0544 20.6685 50.0606 20.4086C50.0606 20.2785 50.066 20.1485 50.0641 20.0186L50.0479 19.6288L50.0154 18.8497C49.8944 16.7729 49.4942 14.7215 48.8256 12.7498C47.4939 8.8147 45.0733 5.25892 41.9181 2.55504L41.8419 2.64089C44.9432 5.37695 47.2861 8.93694 48.5432 12.8424C49.1735 14.7944 49.5382 16.8211 49.6278 18.8688L49.6485 19.6356L49.6591 20.0188C49.6591 20.1467 49.6527 20.2754 49.6499 20.4021C49.64 20.6587 49.6412 20.9134 49.6224 21.1684L49.5683 21.9331C49.4732 22.9502 49.3141 23.9605 49.092 24.9579C48.1855 28.9404 46.1918 32.6685 43.367 35.6213C41.9668 37.1084 40.3548 38.3912 38.6134 39.4589C37.741 39.9894 36.8334 40.4609 35.8969 40.8702C34.9634 41.2837 34.0017 41.6316 33.0191 41.9115C32.7877 42.2748 32.8565 42.5444 33.26 42.7119ZM40.4574 36.4315C40.308 36.1917 40.1602 35.9299 40.1235 35.5422C39.8884 35.7636 39.6905 36.0208 39.5373 36.3041C39.3717 36.5997 39.2709 36.9267 39.2415 37.2636C39.173 37.9905 39.4062 38.4323 39.7138 38.9037C39.9863 38.6861 40.2718 38.4393 40.469 38.1451C40.6706 37.8563 40.8017 37.5449 40.7772 37.212C40.7556 36.8917 40.6059 36.6722 40.4572 36.4315H40.4574ZM44.2932 32.3816C44.0986 32.1978 43.8998 31.9939 43.7696 31.6456C43.6929 31.7752 43.6253 31.9099 43.5673 32.0487C43.5044 32.1892 43.4546 32.3351 43.4185 32.4845C43.3496 32.7899 43.3244 33.1066 43.3806 33.4316C43.5035 34.1174 43.8212 34.458 44.216 34.8128C44.4228 34.5463 44.592 34.2532 44.7192 33.9415C44.8298 33.6285 44.8667 33.3084 44.7712 33.0161C44.6789 32.732 44.4871 32.5659 44.293 32.3816H44.2932ZM47.1592 27.2697C46.9371 27.1519 46.7121 27.0184 46.502 26.7331C46.3521 27.2718 46.3328 27.8972 46.5996 28.4594C46.8879 29.0523 47.2564 29.2772 47.7068 29.4981C47.9323 28.924 48.082 28.2126 47.7509 27.7264C47.5927 27.4892 47.3795 27.3877 47.159 27.2697H47.1592ZM47.7734 21.0128C47.7701 21.2856 47.8129 21.557 47.9003 21.8157C47.9822 22.0869 48.1223 22.3373 48.3112 22.5496C48.7284 23.0092 49.115 23.1132 49.5791 23.1937C49.5957 23.0465 49.6003 22.8983 49.5927 22.7505C49.5876 22.6016 49.5706 22.4534 49.5419 22.3072C49.4883 22.0219 49.3614 21.7642 49.151 21.5876C48.7411 21.2482 48.281 21.428 47.7732 21.0128H47.7734ZM47.3767 15.2465C47.4136 15.3671 47.46 15.4847 47.5155 15.5981C47.5748 15.7126 47.6242 15.8288 47.696 15.9365C47.8366 16.1609 48.0259 16.3514 48.2502 16.4941C48.7378 16.8025 49.1244 16.7959 49.557 16.7507C49.4379 16.2267 49.2249 15.6324 48.7705 15.4184C48.3083 15.2185 47.9476 15.4919 47.3764 15.2465H47.3767ZM45.628 10.0247C45.6882 10.1231 45.7647 10.2155 45.836 10.3098C45.9083 10.4046 45.989 10.4929 46.0772 10.5734C46.2587 10.7409 46.4753 10.8666 46.7114 10.9415C47.2242 11.1015 47.5673 11.0021 47.9424 10.8586C47.7071 10.4194 47.3682 9.94002 46.9089 9.85557C46.4617 9.77719 46.1972 10.1126 45.6278 10.0247H45.628ZM42.9907 5.94871C43.1418 6.10939 43.3185 6.24432 43.5138 6.34807C43.6145 6.40065 43.7199 6.44384 43.8287 6.47707C43.9358 6.51413 44.0471 6.5381 44.16 6.54845C44.6439 6.59347 44.9284 6.43368 45.2324 6.22723C45.0865 6.05111 44.9171 5.87009 44.7295 5.73619C44.5316 5.61023 44.3189 5.52951 44.1007 5.54118C43.6779 5.56637 43.5148 5.91768 42.9907 5.94871ZM37.4724 39.1218C37.714 38.453 37.6606 38.0254 37.6015 37.6436C37.5387 37.258 37.4719 36.9204 37.6328 36.4655C37.5422 36.8738 37.6004 37.1521 37.671 37.4621C37.7416 37.7721 37.823 38.1153 37.7371 38.662C37.6768 39.0267 37.5654 39.3812 37.4062 39.7153C37.2748 40.0066 37.1194 40.2867 36.9415 40.5527C37.8512 40.005 38.7085 39.1813 38.7316 38.206C38.7492 37.6968 38.5334 37.314 38.3287 36.9064C38.124 36.4989 37.9183 36.0547 37.8896 35.4382C37.1714 36.0447 36.5287 36.8754 36.3058 37.9627C36.1969 38.5225 36.1912 38.983 36.2647 39.4069C36.3381 39.8307 36.4894 40.2194 36.6673 40.6199C36.7971 40.4537 36.915 40.2787 37.0203 40.0962C37.1921 39.7814 37.3431 39.456 37.4724 39.1218ZM42.1217 35.7307C42.1937 35.0685 42.0275 34.6754 41.8828 34.3381C41.731 33.9975 41.6004 33.7143 41.6315 33.2454C41.6524 33.6513 41.7665 33.8883 41.9056 34.1552C42.0447 34.4221 42.1998 34.7169 42.2586 35.2476C42.2927 35.5887 42.2633 35.953 42.2094 36.296C42.1555 36.6389 42.0607 36.9433 41.9868 37.1775C42.1586 36.9927 42.3344 36.8043 42.481 36.5943C42.6279 36.3903 42.7577 36.1746 42.869 35.9495C42.9697 35.7324 43.041 35.5029 43.0808 35.2672C43.1206 35.0404 43.1141 34.808 43.0618 34.5837C42.9491 34.1046 42.6657 33.8097 42.3793 33.4824C42.0885 33.1559 41.8061 32.8029 41.6246 32.2314C41.0989 32.965 40.7036 33.8935 40.7676 34.9556C40.8203 36.0286 41.2241 36.6631 41.7545 37.3102C41.8299 37.1235 41.8928 36.932 41.9428 36.7371C41.9769 36.6076 42.0134 36.462 42.0435 36.2939C42.0736 36.1257 42.0998 35.9383 42.1212 35.7307H42.1217ZM45.8278 31.139C45.7176 30.5091 45.4882 30.1991 45.2644 29.9211C45.043 29.6465 44.8408 29.4116 44.7658 28.9784C44.8752 29.3421 45.0446 29.535 45.2385 29.747C45.4324 29.9591 45.6553 30.1949 45.8306 30.6608C45.9451 30.9752 46.0188 31.3028 46.0499 31.6356C46.0745 31.9226 46.0809 32.2109 46.069 32.4987C46.529 31.6606 46.8178 30.629 46.406 29.8548C46.1923 29.4461 45.8511 29.2404 45.5094 29.0111C45.1677 28.7817 44.8079 28.5233 44.5126 28.0458C44.2163 28.8566 44.0678 29.8058 44.3928 30.7657C44.5533 31.2507 44.7648 31.6172 45.019 31.916C45.2696 32.2137 45.5642 32.4453 45.8866 32.6762C45.908 32.5503 45.9212 32.3606 45.917 32.1057C45.9127 31.8507 45.8998 31.5355 45.8278 31.139ZM48.2594 25.4595C47.993 24.9129 47.6981 24.6897 47.4308 24.4946C47.1583 24.3013 46.9112 24.1387 46.7284 23.7603C46.9244 24.0659 47.1284 24.1984 47.3614 24.3435C47.5944 24.4886 47.8492 24.643 48.1349 25.0235C48.3228 25.2794 48.4756 25.5588 48.5895 25.8544C48.688 26.1092 48.7703 26.3699 48.8359 26.6349C48.9235 26.1917 48.9868 25.7219 48.9301 25.2819C48.8877 24.8448 48.734 24.4422 48.4465 24.1389C48.1424 23.8205 47.7892 23.7218 47.4186 23.5998C47.0479 23.4778 46.6535 23.3341 46.2582 22.97C46.2309 23.3826 46.2314 23.8135 46.3333 24.2455C46.3747 24.4641 46.4389 24.6778 46.5248 24.8833C46.5696 24.9898 46.6201 25.0939 46.6761 25.1952C46.7302 25.2987 46.7904 25.3989 46.8564 25.4954C47.1301 25.8964 47.419 26.1747 47.729 26.3802C48.0349 26.585 48.3643 26.7184 48.7173 26.8435C48.6917 26.6647 48.6504 26.4886 48.5938 26.317C48.5036 26.0235 48.3919 25.737 48.2594 25.4597V25.4595ZM49.0032 19.1692C48.6246 18.7419 48.3079 18.6136 48.0095 18.5063C47.7111 18.399 47.443 18.3164 47.1738 18.0178C47.4346 18.2467 47.6558 18.3143 47.9045 18.3852C48.0413 18.4217 48.1757 18.4666 48.3069 18.5196C48.4772 18.5936 48.637 18.6892 48.7825 18.8039C49.2409 19.1567 49.6346 19.7226 49.8492 20.082C49.7551 19.2336 49.5334 18.3159 48.8279 17.9194C48.4667 17.708 48.1205 17.7094 47.7527 17.6926C47.3849 17.6758 46.9948 17.646 46.5509 17.4127C46.6147 17.8167 46.7502 18.2063 46.951 18.5634C47.1392 18.9341 47.392 19.2822 47.7487 19.5705C48.4764 20.1611 49.088 20.2668 49.7961 20.303C49.7092 20.0937 49.4715 19.7044 49.0032 19.1692ZM47.9871 13.1662C47.5365 12.8746 47.2178 12.8373 46.9206 12.8144C46.6234 12.7916 46.361 12.7827 46.0415 12.5779C46.3356 12.7213 46.5526 12.7279 46.7945 12.7307C47.0364 12.7335 47.3091 12.7307 47.6941 12.8909C48.1984 13.0957 48.6957 13.5084 48.9835 13.7774C48.6813 13.037 48.2502 12.2637 47.5115 12.0805C47.1315 11.9788 46.819 12.0647 46.4822 12.141C46.1455 12.2172 45.7852 12.2856 45.3242 12.1818C45.4848 12.5334 45.7065 12.8544 45.9791 13.13C46.2448 13.4195 46.5611 13.6726 46.9569 13.8445C47.7647 14.1973 48.3436 14.1378 48.9905 13.9924C48.8644 13.8233 48.5437 13.5338 47.9874 13.1662H47.9871ZM45.6974 8.15664C45.2173 7.99638 44.9131 8.03767 44.6422 8.08013C44.5071 8.10182 44.3808 8.12445 44.2473 8.12678C44.1139 8.12911 43.977 8.10602 43.803 8.05167C43.9301 8.07885 44.0601 8.08959 44.1899 8.08363C44.2992 8.07437 44.4076 8.05635 44.514 8.02974C44.7316 7.98122 44.9712 7.92313 45.3637 7.97679C45.872 8.04677 46.4342 8.298 46.7321 8.48999C46.5359 8.17344 46.2615 7.88511 45.9742 7.6593C45.6821 7.43629 45.3712 7.2793 45.023 7.2723C44.6516 7.2667 44.3876 7.4139 44.0981 7.55783C43.8087 7.70176 43.4967 7.84405 43.0495 7.85292C43.5202 8.37895 44.1212 8.87069 44.9279 9.00039C45.7266 9.14805 46.2375 8.96003 46.791 8.67964C46.6227 8.56464 46.3064 8.35259 45.6976 8.15664H45.6974ZM42.7599 4.2766C42.296 4.21945 42.0303 4.31159 41.792 4.4035C41.5536 4.49541 41.3425 4.59012 41.0107 4.54673C41.2983 4.55 41.4703 4.47395 41.6609 4.38484C41.7644 4.33443 41.8709 4.29026 41.9798 4.25257C42.1241 4.20768 42.2735 4.1808 42.4245 4.17256C42.8978 4.14154 43.4439 4.27334 43.7715 4.37294C43.2472 3.91223 42.6135 3.47368 41.9654 3.60617C41.6287 3.66939 41.4173 3.85321 41.1832 4.03843C40.949 4.22365 40.6935 4.41167 40.2889 4.50031C40.5551 4.71746 40.8566 4.88802 41.1806 5.00465C41.5023 5.13528 41.8515 5.21459 42.2266 5.19943C42.9895 5.17354 43.4268 4.89034 43.8671 4.5297C43.6908 4.45902 43.338 4.35032 42.7599 4.2766ZM42.0141 38.6907C41.6832 38.6259 41.3293 38.6851 40.9881 38.8139C40.6459 38.9521 40.3178 39.1221 40.008 39.3217C40.3537 39.765 40.6784 40.1429 41.4731 40.2567C41.8524 40.3099 42.2381 40.2446 42.6163 40.1167C42.9928 39.9859 43.3416 39.7708 43.6553 39.5336C43.2225 39.4773 42.9796 39.2952 42.7582 39.1153C42.5368 38.9354 42.3396 38.757 42.0141 38.6907ZM46.2351 34.053C45.9116 34.0668 45.6108 34.2098 45.3345 34.4097C45.0486 34.6026 44.7966 34.8613 44.5669 35.1049C44.9905 35.4256 45.3842 35.6929 46.1255 35.601C46.4813 35.5579 46.8265 35.4165 47.1289 35.2045C47.283 35.0985 47.4283 34.9806 47.5635 34.8518C47.6957 34.7214 47.8174 34.581 47.9276 34.4319C47.5249 34.4844 47.2607 34.3763 47.0164 34.2653C46.7721 34.1543 46.5516 34.0395 46.2358 34.053H46.2351ZM49.2056 28.2487C48.638 28.4386 48.2573 29.0584 47.9709 29.6143C48.434 29.7951 48.8651 29.9395 49.5061 29.6705C50.1276 29.417 50.5849 28.8074 50.8338 28.1736C50.4877 28.3208 50.2159 28.287 49.9667 28.2473C49.7175 28.2077 49.4857 28.1575 49.2063 28.2487H49.2056ZM50.4999 21.6779C50.2686 21.8349 50.1166 22.0777 49.9947 22.3511C49.9361 22.4902 49.8884 22.6335 49.8518 22.7799C49.8163 22.927 49.7845 23.0749 49.7539 23.2175C50.2156 23.2581 50.643 23.2749 51.1452 22.8692C51.3852 22.6753 51.5749 22.415 51.7081 22.1227C51.8318 21.8269 51.9111 21.5146 51.9434 21.1959C51.3845 21.6286 50.9524 21.3671 50.5013 21.6779H50.4999ZM50.0151 15.1623C49.6683 15.5603 49.6683 16.1906 49.7328 16.7266C50.1592 16.6464 50.5312 16.5559 50.8802 16.0681C51.0466 15.8348 51.1471 15.5565 51.1962 15.2633C51.2181 15.1173 51.2386 14.9654 51.2278 14.818C51.2194 14.6707 51.2009 14.5242 51.1725 14.3794C50.7894 14.9003 50.3307 14.7751 50.0151 15.1623ZM47.8711 9.37713C47.6581 9.81288 47.8134 10.3727 48.0038 10.8335C48.3646 10.6594 48.674 10.4889 48.8661 9.97291C48.9576 9.72657 48.9792 9.45597 48.9517 9.18491C48.9376 9.04855 48.9125 8.91352 48.8766 8.78111C48.8416 8.64815 48.7825 8.52451 48.7253 8.40438C48.618 8.68174 48.4526 8.81704 48.2921 8.93811C48.1316 9.05918 47.9742 9.16461 47.8699 9.37643L47.8711 9.37713ZM44.8653 4.91251C44.8182 5.12595 44.8629 5.34733 44.9535 5.56054C45.0338 5.78192 45.1578 5.99769 45.2856 6.18828C45.5715 5.95734 45.8122 5.73923 45.8854 5.23186C45.9021 5.11028 45.9038 4.98714 45.8906 4.86515C45.873 4.74453 45.8422 4.62618 45.7986 4.51221C45.7095 4.28018 45.5861 4.06257 45.4324 3.86651C45.3437 4.4098 44.954 4.49495 44.8653 4.91251ZM39.8727 2.31314C40.1466 2.65372 40.5431 2.94578 41.0396 3.03092C41.5465 3.13729 41.8633 3.03092 42.2163 2.88583C42.0842 2.70177 41.9256 2.50909 41.7428 2.35443C41.5517 2.20933 41.3336 2.10576 41.0994 2.08546C40.6436 2.04767 40.4259 2.35746 39.8727 2.31314ZM41.2568 1.89138C41.3274 2.11509 41.4759 2.29774 41.6552 2.4545C41.8261 2.62059 42.0318 2.75776 42.2283 2.8716C42.3386 2.51119 42.4193 2.17528 42.216 1.66184C42.008 1.1869 41.5837 0.825788 41.1627 0.613976C41.3724 1.1764 41.1168 1.45563 41.2571 1.89138H41.2568ZM37.5825 41.1611C37.3639 41.1423 37.1444 41.1345 36.925 41.1378C37.1396 41.521 37.3585 41.8754 37.6764 42.1796C37.9943 42.4838 38.4139 42.7394 39.0321 42.8946C39.6439 43.0557 40.3028 43.0201 40.9603 42.864C41.2886 42.7758 41.6094 42.6625 41.92 42.5251C42.227 42.3795 42.5234 42.213 42.8072 42.0268C42.0972 41.8943 41.7313 41.5668 41.3994 41.2467C41.0683 40.9229 40.7784 40.6145 40.2565 40.4517C39.2803 40.1587 38.1527 40.5467 37.1502 40.96C37.4152 40.9768 37.762 40.9882 38.1404 41.0286C38.5221 41.0729 38.9267 41.127 39.2989 41.2269C39.8743 41.3832 40.1774 41.5852 40.452 41.7597C40.7267 41.9342 40.9827 42.0863 41.4898 42.104C40.8869 42.1469 40.5807 41.9659 40.2278 41.7697C39.8748 41.5672 39.4688 41.3477 38.7193 41.2707C38.2463 41.2101 37.8743 41.1763 37.5825 41.1611ZM43.1761 37.4724C42.9982 37.501 42.8396 37.5267 42.7024 37.5535C42.4988 37.5909 42.2974 37.6393 42.0991 37.6984C42.6857 38.2925 43.2465 38.7922 44.4657 38.7987C45.6553 38.7927 46.866 38.0576 47.7033 37.1112C47.0305 37.1623 46.6053 36.9391 46.225 36.7245C45.8435 36.5059 45.4955 36.2848 44.9837 36.2645C44.7408 36.2578 44.4983 36.2862 44.2638 36.3489C44.0222 36.4154 43.7886 36.508 43.5673 36.6249C43.3333 36.7398 43.1084 36.8719 42.8945 37.0203C42.6791 37.1693 42.4593 37.3175 42.2591 37.4768C42.4991 37.4196 42.8323 37.3601 43.186 37.3009C43.5533 37.2371 43.9255 37.2053 44.2984 37.2057C44.858 37.2057 45.1849 37.3196 45.4826 37.4175C45.7802 37.5155 46.0556 37.5972 46.518 37.4875C46.2518 37.5822 46.0358 37.6041 45.8374 37.5883C45.639 37.5724 45.4651 37.526 45.2785 37.4763C44.9034 37.3734 44.4918 37.2806 43.7725 37.3781C43.5494 37.4105 43.3517 37.4416 43.1761 37.4724ZM47.1477 32.4234C46.9917 32.4934 46.8559 32.5566 46.7382 32.6149C46.5029 32.7315 46.3382 32.8281 46.2229 32.8948C46.5655 33.0954 46.8992 33.2723 47.2858 33.3663C47.6725 33.4603 48.1045 33.4654 48.6599 33.3168C49.7405 33.0213 50.671 32.0686 51.1939 31.0041C50.582 31.2059 50.149 31.1098 49.7464 31.0041C49.3438 30.8985 48.9783 30.7818 48.4992 30.8833C47.6005 31.0786 46.9063 31.8864 46.3168 32.6562C46.5218 32.5454 46.8013 32.4029 47.1169 32.2669C47.4325 32.1309 47.7664 31.9911 48.1052 31.9071C48.6274 31.7774 48.9449 31.797 49.2419 31.8138C49.5388 31.8306 49.8029 31.8372 50.2067 31.6312C49.7565 31.9246 49.436 31.9176 49.0722 31.919C48.7122 31.9204 48.293 31.9242 47.673 32.1943L47.1477 32.4234ZM49.3812 26.5384C49.1997 26.7054 49.0753 26.8346 48.9884 26.9254C49.3527 27.0187 49.7019 27.091 50.0777 27.076C50.4498 27.0595 50.8458 26.9543 51.309 26.6776C51.4233 26.6089 51.5329 26.5328 51.637 26.4497C51.7392 26.3643 51.8358 26.2726 51.9264 26.1751C52.1133 25.9736 52.2793 25.754 52.4218 25.5197C52.6943 25.0396 52.9035 24.4951 53 23.9509C52.5004 24.2863 52.0844 24.3087 51.6909 24.315C51.2974 24.3213 50.9266 24.3064 50.5204 24.5205C50.3303 24.6221 50.1584 24.7538 50.0114 24.9106C49.8576 25.0717 49.7204 25.2476 49.6017 25.4357C49.3641 25.8322 49.1656 26.2505 49.0091 26.6849C49.1654 26.5311 49.3807 26.3298 49.6301 26.125C49.8836 25.9216 50.1462 25.7084 50.4319 25.546C50.8668 25.2941 51.1725 25.2339 51.4414 25.1728C51.7104 25.1117 51.9549 25.0501 52.2651 24.7634C51.9356 25.1422 51.6455 25.2176 51.3155 25.3111C50.9809 25.4021 50.6075 25.5134 50.1173 25.9176C49.8102 26.1684 49.5612 26.3706 49.3812 26.5384ZM49.9617 20.3044C50.6656 20.2759 51.313 20.2078 51.9836 19.4755C52.3131 19.1144 52.5526 18.6532 52.6896 18.1529C52.8073 17.6534 52.8397 17.1146 52.8073 16.6C52.4326 17.028 52.0589 17.1545 51.7036 17.2604C51.3483 17.3663 51.0106 17.447 50.7021 17.743C50.1434 18.3008 49.9533 19.2315 49.917 20.0823C50.1133 19.7249 50.4623 19.1284 50.8948 18.6878C51.0313 18.5469 51.1819 18.4203 51.3445 18.3099C51.4623 18.2311 51.5844 18.159 51.7104 18.0939C51.9387 17.9695 52.1408 17.8527 52.343 17.517C52.1488 17.9399 51.906 18.082 51.6344 18.2504C51.3628 18.4188 51.0442 18.6136 50.7009 19.1037C50.4257 19.4858 50.1786 19.887 49.9617 20.3044ZM49.1444 13.95C49.7739 13.7466 50.3399 13.5219 50.759 12.6947C50.9649 12.2872 51.0649 11.8123 51.0621 11.3285C51.0435 10.8502 50.9374 10.3587 50.7797 9.90549C50.5479 10.3823 50.242 10.5887 49.9478 10.7719C49.6537 10.955 49.3685 11.111 49.1642 11.4547C48.8002 12.0959 48.8639 12.9845 49.0503 13.761C49.1334 13.3897 49.299 12.7633 49.5772 12.2583C49.7946 11.869 49.989 11.6877 50.1636 11.5202C50.3382 11.3527 50.4914 11.196 50.5898 10.8437C50.5204 11.2722 50.3368 11.4605 50.1342 11.6795C49.9316 11.8986 49.6932 12.1538 49.5075 12.6826C49.2699 13.3379 49.1969 13.7305 49.1444 13.95ZM46.8745 8.63135C47.3943 8.30477 47.8513 7.97259 48.0575 7.12464C48.2366 6.30445 47.961 5.3429 47.443 4.62021C47.3433 5.09656 47.1136 5.35013 46.8884 5.5799C46.6632 5.80968 46.4413 6.01379 46.3368 6.36673C46.2363 6.70078 46.2467 7.06935 46.3368 7.42766C46.4224 7.789 46.5956 8.13774 46.7427 8.48276C46.7571 8.11395 46.746 7.52144 46.8792 7.00614C46.9809 6.61074 47.1216 6.39962 47.2458 6.20741C47.3105 6.11274 47.3657 6.01203 47.4106 5.90672C47.4631 5.77678 47.4899 5.63801 47.4894 5.49802C47.5081 5.66339 47.489 5.83081 47.4336 5.9879C47.3866 6.1232 47.3204 6.2382 47.2508 6.36113C47.1112 6.60654 46.9613 6.88577 46.9185 7.4006C46.8731 8.03534 46.8573 8.43027 46.8745 8.63228V8.63135ZM43.8927 4.50661C44.3019 4.10375 44.6366 3.72211 44.6493 2.92035C44.6535 2.52705 44.5495 2.12722 44.3669 1.75398C44.173 1.39404 43.9075 1.05743 43.6162 0.768869C43.6134 1.22212 43.4534 1.49668 43.2931 1.74862C43.1328 2.00055 42.9702 2.22893 42.942 2.57161C42.9022 3.20494 43.2933 3.87164 43.7386 4.40187C43.659 4.08135 43.5454 3.53223 43.568 3.03652C43.5739 2.87847 43.5969 2.72151 43.6367 2.56834C43.6657 2.45756 43.7012 2.34852 43.7428 2.24176C43.8134 2.04534 43.8746 1.86852 43.819 1.55967C43.9259 1.91494 43.8546 2.12979 43.7805 2.37612C43.7063 2.62246 43.6178 2.90985 43.6762 3.389C43.747 3.98758 43.8355 4.32746 43.8927 4.50661ZM39.8167 0.33848C39.4896 0.179387 39.1832 0.189185 38.8671 0.182886C38.5511 0.176588 38.2172 0.165158 37.8049 0.00069997C37.9321 0.29812 38.107 0.573257 38.3226 0.815524C38.4379 0.943877 38.5653 1.06104 38.7031 1.16543C38.8469 1.26877 38.9902 1.38471 39.1582 1.47429C39.4475 1.64003 39.7631 1.75597 40.0915 1.8172C40.3741 1.87263 40.6608 1.90509 40.9488 1.91424C40.8641 1.81186 40.7738 1.71413 40.6784 1.62148C40.6132 1.5592 40.541 1.48409 40.4494 1.41154C40.3579 1.33899 40.2527 1.25944 40.1336 1.1729C39.7508 0.89507 39.4578 0.80526 39.1987 0.731546C38.9335 0.665996 38.6965 0.624706 38.4261 0.421992C38.68 0.574553 38.8746 0.611643 39.0954 0.651066C39.3161 0.69049 39.5481 0.75324 39.8905 0.932627C40.1101 1.05203 40.3191 1.18978 40.5151 1.34435C40.6707 1.47883 40.8186 1.62173 40.9582 1.77241C40.914 1.62939 40.861 1.48917 40.7996 1.35252C40.7676 1.28254 40.7337 1.21139 40.6946 1.14444C40.6556 1.07749 40.6104 1.01497 40.5631 0.952689C40.3746 0.70262 40.1294 0.482176 39.8167 0.33848Z"
          fill="url(#paint0_linear_3663_4439)"/>
    <defs>
        <linearGradient id="paint0_linear_3663_4439" x1="26.4999" y1="0.00069982" x2="26.4999" y2="43"
                        gradientUnits="userSpaceOnUse">
            <stop stop-color="#DB0060"/>
            <stop offset="0.25" stop-color="#D9347C"/>
            <stop offset="0.38" stop-color="#EB71A7"/>
            <stop offset="1" stop-color="#AB7511"/>
        </linearGradient>
    </defs>
</svg>
