<svg width="103" height="48" viewBox="0 0 103 48" fill="none" xmlns="http://www.w3.org/2000/svg">
    <g opacity="0.05" clip-path="url(#clip0_3688_845)">
        <path d="M111 22.5L111 110C111 113.315 109.683 116.495 107.339 118.839C104.995 121.183 101.815 122.5 98.5 122.5H79.75C79.75 119.185 78.433 116.005 76.0888 113.661C73.7446 111.317 70.5652 110 67.25 110C63.9348 110 60.7554 111.317 58.4112 113.661C56.067 116.005 54.75 119.185 54.75 122.5H36C32.6848 122.5 29.5054 121.183 27.1612 118.839C24.817 116.495 23.5 113.315 23.5 110L23.5 22.5C23.5 19.1848 24.817 16.0054 27.1612 13.6612C29.5054 11.317 32.6848 10 36 10L54.75 10C54.75 13.3152 56.067 16.4946 58.4112 18.8388C60.7554 21.183 63.9348 22.5 67.25 22.5C70.5652 22.5 73.7446 21.183 76.0888 18.8388C78.433 16.4946 79.75 13.3152 79.75 10L98.5 10C101.815 10 104.995 11.317 107.339 13.6612C109.683 16.0054 111 19.1848 111 22.5Z"
              stroke="#7B92DC" stroke-width="14" stroke-linecap="round" stroke-linejoin="round"/>
    </g>
    <defs>
        <clipPath id="clip0_3688_845">
            <rect width="48" height="103" fill="white" transform="translate(103) rotate(90)"/>
        </clipPath>
    </defs>
</svg>
