<svg width="53" height="16" viewBox="0 0 53 16" fill="none" xmlns="http://www.w3.org/2000/svg">
    <path d="M22.9653 15.7687H18.6719L21.3573 0.280273H25.6504L22.9653 15.7687Z" fill="#15195A"/>
    <path d="M38.5313 0.659403C37.6845 0.346017 36.3413 0 34.6805 0C30.4406 0 27.455 2.10895 27.4367 5.12412C27.4014 7.3487 29.5743 8.58429 31.1994 9.32603C32.8605 10.084 33.4251 10.5787 33.4251 11.2543C33.4082 12.2919 32.0829 12.7702 30.8468 12.7702C29.1327 12.7702 28.2142 12.5236 26.8185 11.9463L26.2531 11.6989L25.6523 15.1757C26.6593 15.6036 28.5145 15.9834 30.4406 16C34.9455 16 37.8784 13.9237 37.9131 10.7105C37.9303 8.94739 36.7829 7.59639 34.3093 6.49242C32.8077 5.78374 31.888 5.30589 31.888 4.58078C31.9056 3.9216 32.6658 3.24643 34.3609 3.24643C35.7567 3.21336 36.7822 3.52631 37.5591 3.83947L37.9474 4.00394L38.5313 0.659403Z"
          fill="#15195A"/>
    <path fill-rule="evenodd" clip-rule="evenodd"
          d="M46.215 0.28125H49.5359L52.9996 15.7695H49.0244C49.0244 15.7695 48.6353 13.9899 48.5121 13.4461H42.9997C42.8403 13.8578 42.0987 15.7695 42.0987 15.7695H37.5938L43.971 1.56633C44.4129 0.56113 45.1909 0.28125 46.215 0.28125ZM45.95 5.94963C45.95 5.94963 44.5894 9.39338 44.2358 10.2832H47.8045C47.6279 9.50879 46.8149 5.80137 46.8149 5.80137L46.5148 4.4668C46.3885 4.81045 46.2058 5.28293 46.0825 5.60161C45.999 5.81764 45.9427 5.96299 45.95 5.94963Z"
          fill="#15195A"/>
    <path fill-rule="evenodd" clip-rule="evenodd"
          d="M0.070668 0.28125H6.97829C7.91458 0.313881 8.67432 0.593979 8.92154 1.58319L10.4184 8.67879C10.4207 8.68614 10.4231 8.6935 10.4254 8.70085L10.8848 10.8429L15.0895 0.28125H19.6293L12.8809 15.7532H8.34078L4.5145 2.29659C3.19356 1.57591 1.68585 0.996326 0 0.594198L0.070668 0.28125Z"
          fill="#15195A"/>
</svg>
