<svg width="16" height="15" viewBox="0 0 16 15" fill="none" xmlns="http://www.w3.org/2000/svg">
    <path fill-rule="evenodd" clip-rule="evenodd"
          d="M1.32304 14.4504C1.32304 14.5203 1.39318 14.5661 1.45381 14.536L5.22058 12.6607C5.22521 12.6584 5.22984 12.6564 5.23471 12.6549C7.31534 11.9796 10.9523 13.7047 13.9052 10.6337C14.8248 9.67729 15.4937 9.48707 15.9128 9.45896C15.9766 9.45465 16.018 9.38652 15.9924 9.32548C15.4377 8.00386 13.5088 8.05856 12.4711 8.21231C12.4704 8.21231 12.4699 8.21231 12.469 8.21231C12.4694 8.2118 12.4699 8.21104 12.4704 8.21053C11.9349 6.52697 10.6297 4.09749 8.8052 2.15103C8.75235 2.09454 8.65957 2.12671 8.6491 2.20497L8.30062 4.80947C8.29064 4.88343 8.20614 4.91711 8.15135 4.86899L2.6232 0.022448C2.565 -0.0287149 2.47465 0.0130766 2.47246 0.0923537C2.3261 5.27069 4.7126 8.41595 7.09155 10.2596C7.15998 10.3125 7.12588 10.426 7.04065 10.43L4.24066 10.5668C4.23822 10.5668 4.23554 10.5668 4.23311 10.5668L0.0947293 10.4088C0.0431031 10.4067 0 10.4498 0 10.5037V10.8219C0 10.8637 0.0263002 10.9006 0.0647763 10.9128L4.23116 12.2235C4.30519 12.2468 4.31956 12.3494 4.25503 12.3937L1.3642 14.3711C1.33863 14.3886 1.32304 14.4185 1.32304 14.4504Z"
          fill="#DB0060" fill-opacity="0.4"/>
</svg>